<?xml version="1.0" encoding="UTF-8"?>
<svg width="172px" height="32px" viewBox="0 0 172 32" version="1.1" xmlns="http://www.w3.org/2000/svg" xmlns:xlink="http://www.w3.org/1999/xlink">
    <title>切片</title>
    <g id="页面-1" stroke="none" stroke-width="1" fill="none" fill-rule="evenodd">
        <g id="首页-event列表-缺省" transform="translate(-627.000000, -32.000000)" fill-rule="nonzero">
            <g id="编组-4备份" transform="translate(627.000000, 32.000000)">
                <g id="编组-3" transform="translate(3.247731, 6.500000)">
                    <g id="编组" transform="translate(0.000000, 0.412553)">
                        <path d="M7.34446917,0 C13.2958639,0 17.550833,3.82299013 17.550833,9.29619182 C17.550833,13.6185683 14.9753297,16.9087878 11.0291963,18.1565941 L11.029721,13.1916934 C12.1091774,12.2483008 12.767469,10.8730011 12.767469,9.29619182 C12.767469,6.40832158 10.4314075,4.18053597 7.34446917,4.18053597 L4.45220259,4.18053597 L4.45186377,7.321 L0.000863773102,7.321 L0.000863773102,0 Z" id="形状结合" fill="#333333"></path>
                        <path d="M0.24134631,14.4346092 C2.22744718,14.4346092 3.83750005,16.0269042 3.83750005,17.9910997 C3.83750005,18.0708121 3.83484836,18.149912 3.82962746,18.2283178 L0.00160272791,18.228199 L0.000996058392,14.4424267 C0.0804356134,14.4372424 0.160580026,14.4346092 0.24134631,14.4346092 Z" id="形状结合" fill="#BBD0FF"></path>
                        <path d="M0.481089893,9.21842323 C5.24773197,9.21842323 9.11185886,13.0399312 9.11185886,17.7540003 C9.11185886,17.9129846 9.10746377,18.0709537 9.09878719,18.2277952 L5.25226434,18.2284221 C5.26793714,18.0723829 5.27596154,17.9141184 5.27596154,17.7540003 C5.27596154,15.135073 3.12922438,13.012013 0.481089893,13.012013 C0.31902241,13.012013 0.15883292,13.019965 0.000898579243,13.0354959 L0.000723429901,9.23142049 C0.159737137,9.2227934 0.319897469,9.21842323 0.481089893,9.21842323 Z" id="形状结合" fill="#2C00FF"></path>
                    </g>
                    <path d="M31.6506325,15.8970381 L32.9299043,19.1149506 L37.9357503,19.1149506 L29.9263967,0.302538787 L25.4211353,0.302538787 L17.3839714,19.1149506 L22.3898174,19.1149506 L23.6412789,15.8970381 L31.6506325,15.8970381 Z M30.0932582,11.9365303 L25.1986532,11.9365303 L27.6459557,5.72073343 L30.0932582,11.9365303 Z" id="形状" fill="#333333"></path>
                    <polygon id="路径" fill="#333333" points="44.6380219 0.412552891 39.9380887 0.412552891 39.9380887 19.1149506 44.6380219 19.1149506"></polygon>
                    <polygon id="路径" fill="#333333" points="62.0194316 15.0169252 52.6751857 15.0169252 52.6751857 0.412552891 47.9752525 0.412552891 47.9752525 19.1149506 62.0194316 19.1149506"></polygon>
                    <polygon id="路径" fill="#333333" points="78.5109131 0.412552891 73.3103953 0.412552891 68.6660827 8.55359661 64.0495802 0.412552891 58.8490625 0.412552891 66.3300212 13.4767278 66.3300212 19.1149506 71.0577646 19.1149506 71.0577646 13.4767278"></polygon>
                    <polygon id="路径" fill="#2C00FF" points="85.0463232 4.51057828 94.4739998 4.51057828 94.4739998 0.412552891 80.34639 0.412552891 80.34639 19.1149506 85.0463232 19.1149506 85.0463232 12.5141044 93.1669178 12.5141044 93.1669178 8.47108604 85.0463232 8.47108604"></polygon>
                    <polygon id="路径" fill="#2C00FF" points="101.259702 4.45557123 110.85424 4.45557123 110.85424 0.412552891 96.559769 0.412552891 96.559769 19.1149506 110.85424 19.1149506 110.85424 15.0719323 101.259702 15.0719323 101.259702 11.8265162 109.658399 11.8265162 109.658399 7.86600846 101.259702 7.86600846"></polygon>
                    <polygon id="路径" fill="#2C00FF" points="118.223958 4.45557123 127.818496 4.45557123 127.818496 0.412552891 113.524025 0.412552891 113.524025 19.1149506 127.818496 19.1149506 127.818496 15.0719323 118.223958 15.0719323 118.223958 11.8265162 126.622655 11.8265162 126.622655 7.86600846 118.223958 7.86600846"></polygon>
                    <path d="M130.488281,0.412552891 L130.488281,19.1149506 L138.080481,19.1149506 C144.031875,19.1149506 148.286844,15.264457 148.286844,9.70874471 C148.286844,4.23554302 144.031875,0.412552891 138.080481,0.412552891 L130.488281,0.412552891 Z M135.188214,14.9344147 L135.188214,4.59308886 L138.080481,4.59308886 C141.167419,4.59308886 143.50348,6.82087447 143.50348,9.70874471 C143.50348,12.6791255 141.167419,14.9344147 138.080481,14.9344147 L135.188214,14.9344147 Z" id="形状" fill="#2C00FF"></path>
                    <path d="M158.131675,0 C153.682034,0 150.622906,2.36530324 150.622906,6.10578279 C150.622906,9.07616361 152.374952,10.8088858 156.101526,11.606488 L159.216275,12.2940762 C160.82927,12.596615 161.218613,13.2566996 161.218613,13.8892807 C161.218613,14.9069111 160.300875,15.5394922 158.548829,15.5394922 C156.324008,15.5394922 154.877875,14.5493653 154.571962,12.8991537 L149.872029,12.8991537 C150.316993,17.5197461 154.154808,19.5 158.409777,19.5 C163.137521,19.5 166.252269,17.1622003 166.252269,13.4217207 C166.252269,10.2038082 163.999639,8.82863188 160.551167,8.08603667 L157.909193,7.4809591 C156.49087,7.17842031 155.739993,6.73836389 155.739993,5.72073343 C155.739993,4.51057828 156.824593,3.85049365 158.437588,3.85049365 C160.356495,3.85049365 161.246423,4.81311707 161.496716,6.2157969 L166.224459,6.2157969 C165.751685,1.18265162 161.190803,0 158.131675,0 Z" id="路径" fill="#2C00FF"></path>
                </g>
            </g>
        </g>
    </g>
</svg>