<?xml version="1.0" encoding="UTF-8"?>
<svg width="14px" height="14px" viewBox="0 0 14 14" version="1.1" xmlns="http://www.w3.org/2000/svg" xmlns:xlink="http://www.w3.org/1999/xlink">
    <title>编组 4</title>
    <g id="页面-1" stroke="none" stroke-width="1" fill="none" fill-rule="evenodd">
        <g id="首页-event列表" transform="translate(-688.000000, -768.000000)" fill-rule="nonzero">
            <g id="编组-5" transform="translate(674.000000, 759.000000)">
                <g id="编组-4" transform="translate(14.000000, 9.000000)">
                    <path d="M14,7 L14,12 C14,13.1045695 13.1045695,14 12,14 L11,14 L11,7 L14,7 Z" id="形状结合" fill="#2C00FF"></path>
                    <path d="M12,2 L12,14 L12,14 L2,14 C0.8954305,14 -5.9849844e-16,13.1045695 0,12 L0,2 C-1.3527075e-16,0.8954305 0.8954305,1.3527075e-16 2,0 L10,0 C11.1045695,-2.02906125e-16 12,0.8954305 12,2 Z" id="路径" fill="#BBD0FF"></path>
                    <polygon id="矩形" fill="#2C00FF" points="2 3 10 3 10 5 2 5"></polygon>
                    <rect id="矩形备份-2" fill="#2C00FF" x="7" y="6" width="3" height="2"></rect>
                    <rect id="矩形备份-3" fill="#2C00FF" x="7" y="9" width="3" height="2"></rect>
                    <polygon id="矩形" fill="#2C00FF" points="2 6 6 6 6 11 2 11"></polygon>
                </g>
            </g>
        </g>
    </g>
</svg>